<svg width="166" height="72" viewBox="0 0 166 72" fill="none" xmlns="http://www.w3.org/2000/svg">
<path fill-rule="evenodd" clip-rule="evenodd" d="M16.453 57.5561L16.0207 56.7858C15.0673 54.991 14.1817 52.7489 13.7936 49.8858C13.4913 47.6546 13.5517 45.3503 13.9846 43.0255C14.0629 42.6051 14.1538 42.1839 14.2565 41.7623C14.2944 41.572 14.3268 41.3798 14.3778 41.1917C15.3465 37.6293 16.5594 35.2633 17.1076 34.388L17.8596 34.4971C16.4936 37.323 15.9446 38.3567 15.1547 41.6761C14.4476 45.1882 14.6169 48.6459 15.6352 51.8038C16.4719 54.3998 16.2733 53.7548 17.2883 55.4836C18.0437 56.7684 18.9432 57.9467 19.938 59.0076C20.8624 59.994 21.873 60.8834 22.944 61.6799L23.0005 61.7221L22.9915 61.7738C25.5009 63.6272 28.3415 64.9855 31.2902 65.9443C32.6763 66.3948 34.105 66.7541 35.5588 67.0339C34.1141 67.1494 32.6641 67.2039 31.2068 67.1843C29.7388 67.1643 28.2838 67.0985 26.8569 66.9744C26.4502 66.8634 26.047 66.7414 25.6474 66.6081C22.7771 64.9018 20.1284 62.706 18.0353 59.984C17.4946 59.2807 16.9906 58.5424 16.5301 57.7684L16.4034 57.5551L16.453 57.5561ZM57.8472 66.5984C68.2485 64.6015 78.5703 60.7136 88.683 56.9353C91.9364 55.7198 95.1898 54.5035 98.4539 53.3399C99.3986 53.0035 100.343 52.6692 101.289 52.3396C102.037 52.0789 102.784 51.824 103.531 51.5734C103.633 51.5682 103.736 51.5611 103.839 51.556C109.031 51.3206 113.131 52.0841 115.886 54.1922L115.748 54.2287C107.512 56.4584 99.3731 59.3858 91.2421 62.2112C75.5315 67.6697 59.0274 73.1381 42.9683 71.794C40.5784 71.5938 38.2981 71.2474 36.0867 70.7248C42.1453 70.7481 48.4597 69.3336 54.4475 67.6289C55.5837 67.3055 56.7167 66.9603 57.8472 66.5984ZM110.348 49.4472C112.995 48.6911 115.657 48.0193 118.36 47.4538C124.683 46.1302 131.041 45.4859 137.299 46.0178C140.314 46.338 142.93 47.0147 145.1 47.9731C153.046 51.4802 155.364 60.8461 147.295 66.8281C142.211 70.5968 135.827 68.0958 144.908 65.229C147.991 64.2556 150.956 61.9414 151.393 57.7248C151.903 52.7982 146.84 49.5152 136.621 50.1219C130.251 50.3265 123.437 52.2192 117.121 53.8644C115.397 51.8373 113.084 50.371 110.348 49.4472Z" fill="#E76C2B"/>
<path fill-rule="evenodd" clip-rule="evenodd" d="M55.0433 66.0371C71.3834 61.3854 87.0797 52.3156 103.839 51.5562C107.894 51.3724 111.282 51.7977 113.884 52.9968C117.328 54.584 119.944 57.7669 118.267 61.6561C116.289 66.2451 119.422 65.7307 119.829 62.0719C120.135 59.3154 119.238 56.6621 117.977 54.9908C115.232 50.9434 110.438 48.7613 104.602 48.3335C87.4027 47.0722 71.2702 57.1206 54.4915 62.5235C42.2009 66.4812 26.2323 70.0427 16.6958 58.4158C11.3577 51.9081 9.67317 41.5835 14.8847 30.8603C14.7817 30.2444 14.3457 30.8508 13.8182 30.8439C9.0486 41.666 10.165 52.3277 15.8404 59.4964C25.9877 72.3132 41.3668 69.9305 55.0433 66.0371Z" fill="#F7C514"/>
<path fill-rule="evenodd" clip-rule="evenodd" d="M114.359 18.3327L114.927 17.0805L118.101 9.11684C118.46 8.28426 118.81 7.44618 119.157 6.60576L120.487 3.78461C120.592 3.60889 120.704 3.43254 120.823 3.26465C121.636 2.12241 122.686 1.04883 124.047 0.448992C125.132 -0.0298217 126.298 -0.188506 127.454 0.285971C128.435 0.688614 129.029 1.41202 129.209 2.37536C130.757 7.65914 122.16 15.7982 119.46 17.6354L118.723 18.1064C116.121 24.5597 113.102 32.8935 110.497 39.3459C110.24 39.9843 109.929 40.7896 109.852 41.4744C109.819 41.7743 109.845 42.1179 110.102 42.3451L110.112 42.3542L110.121 42.3648C110.295 42.5821 110.516 42.6896 110.802 42.6491C112.442 42.4177 114.201 40.1791 115.045 39.0239C116.092 37.63 117.014 36.038 117.866 34.5282C117.38 34.1338 116.915 33.6628 116.628 33.1269C116.35 32.5384 116.361 31.767 116.43 31.1522C116.521 30.3464 116.781 29.5522 117.095 28.8065C117.427 27.9769 117.849 27.1757 118.305 26.3987C118.775 25.665 119.629 24.4901 120.636 24.3479C121.957 24.1616 122.009 25.4234 121.912 26.2839C121.646 28.6616 120.476 31.4432 119.459 33.6414C119.68 33.6599 119.903 33.6572 120.12 33.6332C121.183 33.5144 122.006 32.772 122.506 31.9551L126.089 22.9987L126.188 22.9927C126.841 22.9535 127.522 22.9133 128.167 22.8223C128.911 22.7172 129.643 22.5595 130.363 22.3672L130.674 22.2841L124.671 37.1002L123.985 38.9231C123.852 39.1924 123.779 39.474 123.746 39.7701C123.715 40.0478 123.691 40.416 124.105 40.3576C124.798 40.2595 125.878 38.9916 126.273 38.5203C127.406 37.0915 128.382 35.5164 129.256 33.9376C130.286 32.0774 131.198 30.155 132.03 28.2095L133.847 23.7359C133.936 23.5307 134.031 23.3248 134.123 23.1197C134.309 22.7312 134.466 22.3205 134.611 21.9166L134.639 21.8359L135.225 21.7533L135.258 21.7807C135.285 21.7809 135.325 21.7757 135.347 21.7726L137.251 21.6133C137.305 21.6059 137.358 21.5926 137.404 21.5666L137.43 21.5515L137.459 21.5474C137.584 21.5216 137.747 21.4614 137.873 21.4211C137.95 21.3862 138.053 21.3735 138.11 21.3607C138.332 21.3115 138.553 21.2639 138.775 21.2163L139.07 21.1529L132.775 36.7888C132.559 37.3001 132.293 37.9599 132.231 38.512C132.171 39.0461 132.273 39.412 132.935 39.3188C134.028 39.1645 135.094 37.8595 135.664 37.0906C137.124 35.0721 138.363 32.703 139.476 30.5013C141.081 27.3451 142.339 24.0395 143.659 20.7694L143.697 20.6778L143.804 20.6788C144.406 20.6848 145.008 20.6527 145.6 20.5692C146.33 20.4662 147.095 20.2666 147.801 20.0774L148.102 19.997L147.306 22.1412C148.466 20.8915 150.078 19.4747 151.764 19.2367C153.973 18.9249 154.777 20.2184 154.9 21.951C155.641 21.0125 156.533 19.9736 157.473 19.2663C158.275 18.6823 159.175 18.2639 160.205 18.1185C161.059 17.9981 161.867 18.1606 162.452 18.8054C163.033 19.4892 163.132 20.3701 163.04 21.1871C162.933 22.1445 162.571 23.1886 162.228 24.087C161.668 25.5529 160.99 26.9956 160.291 28.4051C159.586 29.8253 158.886 31.2666 158.275 32.7261C158.012 33.3538 157.594 34.3306 157.518 35.0049C157.456 35.5582 157.531 36.0192 158.251 35.9174C159.453 35.7477 160.622 34.2019 161.211 33.34C161.776 32.5638 162.279 31.7152 162.752 30.887C163.468 29.635 164.139 28.3563 164.793 27.0741C164.908 26.8553 165.423 25.8158 165.825 25.9755C166.506 26.2457 164.991 29.1614 164.825 29.4768C164.146 30.726 163.446 31.9794 162.682 33.1848C162.027 34.2162 161.226 35.2613 160.251 36.0549C159.509 36.6648 158.636 37.0974 157.633 37.2389C156.634 37.38 155.655 37.2231 154.909 36.5239C154.14 35.8028 153.953 34.8633 154.06 33.9092C154.167 32.9586 154.548 31.9224 154.908 31.0379C155.694 29.13 156.619 27.2479 157.556 25.4048C158.027 24.4368 158.489 23.4505 158.877 22.4498C159.092 21.8956 159.348 21.206 159.414 20.6144C159.461 20.1973 159.429 19.7674 158.856 19.8485C157.366 20.0586 155.609 22.7526 154.936 23.8219C154.255 24.9051 153.679 26.132 153.146 27.2863C152.263 29.2027 151.449 31.1539 150.657 33.1047C150.326 33.9815 149.994 34.858 149.652 35.7313C149.494 36.1351 149.332 36.583 149.14 36.9671L148.654 38.1502L148.553 38.1541C148.174 38.1689 147.783 38.1898 147.41 38.2428L146.716 38.3405L145.138 38.5996C145.082 38.622 145.017 38.6334 144.972 38.6447C144.807 38.6863 144.641 38.7264 144.475 38.7662L144.16 38.842L144.283 38.5658C144.386 38.3348 144.796 37.4754 144.821 37.2479L144.824 37.2294L147.374 31.0285L149.517 25.8405C149.911 24.8585 150.303 23.8713 150.661 22.8763C150.792 22.5115 151.037 21.8913 151.08 21.5103C151.123 21.1239 151.047 20.8891 150.581 20.955C150.134 21.018 149.666 21.3594 149.347 21.6302C148.691 22.1646 148.114 22.871 147.62 23.5339C145.914 25.8525 144.615 28.6628 143.557 31.2934L141.831 35.5695L140.813 38.1758L140.341 39.3282L140.234 39.3268C139.913 39.323 139.53 39.3179 139.215 39.3623C138.195 39.5062 137.187 39.6987 136.192 39.9352L135.89 40.0069L137.153 36.878C135.974 38.6127 134.23 40.5414 131.977 40.8591C130.98 40.9999 130.145 40.735 129.544 39.9481C128.857 39.0667 128.804 37.8749 128.918 36.8599L128.93 36.7476C128.516 37.3366 128.097 37.9233 127.667 38.5016C127.332 38.9516 126.982 39.4197 126.604 39.8387C125.605 40.9645 124.343 41.8266 122.732 42.0539C121.925 42.1678 121.101 42.0765 120.509 41.4834C119.907 40.8822 119.818 40.0617 119.903 39.3014C120.02 38.2589 120.496 36.9995 120.878 36.0235L121.578 34.2728C121.14 34.533 120.655 34.7071 120.12 34.7825C119.754 34.8339 119.298 34.8121 118.913 34.7873C117.678 37.0242 116.196 39.5204 114.447 41.4336C113.393 42.5821 112.001 43.6779 110.314 43.9157C109.181 44.0757 108.083 43.8933 107.284 43.0535C106.494 42.2225 106.37 41.0574 106.453 40.0146C105.861 40.9953 105.201 41.9915 104.454 42.8412C103.357 44.1078 101.949 45.0961 100.151 45.3496C99.2157 45.482 98.2507 45.3861 97.5075 44.7687C96.7559 44.1923 96.5473 43.3982 96.643 42.5469C96.738 41.6993 97.2484 40.4872 97.5722 39.6949C98.3073 37.8953 99.1406 36.1163 99.9793 34.3589C100.139 34.0204 100.303 33.6116 100.344 33.239C100.474 32.0798 99.0973 32.1799 98.2443 32.3002C97.9024 32.3483 97.5199 32.4558 97.183 32.5488L91.5803 46.2809L91.4736 46.2805C90.8435 46.2776 90.2135 46.3135 89.594 46.4008C88.9142 46.4965 88.1297 46.7315 87.4753 46.9177L87.1598 47.0075L88.6214 43.3846C88.1745 43.9335 87.6954 44.4603 87.1936 44.9671C85.8363 46.2914 84.0527 47.6214 82.0132 47.9091C81.161 48.0294 80.2767 47.9858 79.4829 47.6054C77.8688 46.8319 76.9238 44.9065 76.7004 43.2738C76.6819 43.3035 76.6649 43.3307 76.6503 43.3534C76.4519 43.6588 76.2534 43.9638 76.0506 44.2665C75.4672 45.1367 74.8518 45.9949 74.1786 46.8072C73.3799 47.771 71.8931 49.4152 70.5052 49.611C69.5081 49.7517 68.6734 49.4868 68.0727 48.6999C67.3858 47.8187 67.3323 46.6267 67.4462 45.6116L67.4588 45.4993C67.0446 46.0885 66.6254 46.6751 66.1952 47.2535C65.8603 47.7037 65.5106 48.1716 65.1324 48.5907C64.1002 49.7532 62.4817 50.5556 60.8518 50.7855C60.0443 50.8997 59.2211 50.8078 58.6287 50.2149C57.6091 49.195 58.9628 45.9084 59.4062 44.7753L60.7724 41.3612C60.4257 40.7613 59.9265 40.3784 59.4084 39.9368C58.0753 43.3499 56.1523 46.5074 53.4337 49.125C51.1387 51.3331 48.3298 53.1274 44.9436 53.6054C43.5883 53.7966 42.1232 53.6973 41.0896 52.7219C40.0155 51.7449 39.8911 50.2765 40.0341 49.0019C40.0876 48.5256 40.1857 48.0538 40.317 47.5918C37.7871 50.0496 34.7475 52.1168 31.5356 53.7666C28.4385 55.3639 25.0831 56.5385 21.5278 57.04C15.0224 57.9579 8.95493 56.7549 4.54131 51.8304C3.67357 50.8497 2.91015 49.7973 2.27475 48.6803C2.16692 48.4907 2.0628 48.2993 1.96241 48.1065L1.92619 48.116L1.87211 47.9863C1.27442 46.5534 0.793169 45.0936 0.386175 43.6121L0.383094 43.6008L0.382137 43.5867C0.328912 43.3159 0.283442 43.0472 0.241266 42.775C-1.98302 28.4505 11.5349 15.5517 25.8417 12.6238C29.9189 8.7472 35.0546 6.56799 40.9151 5.74102C42.4332 5.527 44.0492 5.3698 45.5987 5.43708C47.5329 5.53822 49.5319 5.84882 51.44 6.18968C55.0073 6.78201 58.7685 7.3901 62.371 7.64062C64.4518 7.78386 66.7185 7.85157 68.7696 7.56212C69.9876 7.39032 71.2144 7.10658 72.3306 6.63835C73.3896 6.22365 74.3553 5.61587 75.2119 4.92092C76.2702 4.06591 77.2305 3.01191 78.099 1.99461L78.1866 1.8921L79.1187 2.45851L79.0222 2.58091C77.1375 4.97361 74.8743 7.03919 72.1679 8.64649C69.5798 10.1817 66.7433 11.2153 63.6629 11.6501C62.0815 11.8732 60.4745 11.9152 58.8668 11.8007C56.8338 13.4391 55.2466 15.478 54.0189 17.6936C53.221 19.1053 52.5614 20.6203 51.9673 22.1186C51.1542 24.1694 50.4464 26.2666 49.7889 28.3687C49.7416 28.5171 49.6939 28.6652 49.6462 28.8135C51.5278 27.0401 54.0006 25.5288 56.6804 27.2765C57.399 27.7495 58.352 28.3961 58.9132 29.0245C59.6178 29.753 60.06 30.7091 60.3479 31.6287C61.0593 34.0361 60.3657 36.1359 59.9331 38.4189C60.4302 38.7863 61.0564 39.1614 61.467 39.6251L64.6179 31.7501L64.7168 31.7441C65.3691 31.7052 66.0514 31.6651 66.6956 31.5742C67.44 31.4691 68.1717 31.3115 68.8915 31.1192L69.2025 31.0363L64.2732 43.2032C63.9422 44.0203 63.5746 44.825 63.2348 45.6393C62.8588 46.5398 62.4401 47.5709 62.2738 48.5299C62.2246 48.8142 62.2149 49.1685 62.6334 49.1093C63.3265 49.0116 64.4064 47.7431 64.8012 47.2722C65.9346 45.843 66.9106 44.2683 67.7841 42.6894C68.4508 41.4859 69.062 40.2556 69.6371 39.0107C70.9045 36.267 71.9967 33.4542 73.1413 30.6628L73.1769 30.576L73.279 30.573C74.629 30.5332 76.0089 30.2963 77.2977 29.9696L77.6041 29.8919L73.1132 41.0456C72.6564 42.1806 72.1576 43.283 71.7286 44.4341C71.5848 44.8202 70.5159 47.7249 70.985 47.9999C71.0799 48.0558 71.3072 47.9407 71.3825 47.8994C72.4868 47.2931 75.4095 42.7445 75.9697 41.5138C76.3226 40.7386 76.6851 39.9683 77.0701 39.2066C77.6247 38.1171 78.1816 37.0298 78.7656 35.953C80.4564 32.9273 83.7095 28.5569 87.6664 27.9979C88.6516 27.859 89.5866 28.0323 90.2701 28.7778C90.9927 29.5835 91.0642 30.6899 90.9554 31.6607C90.8308 32.7729 90.4906 33.8232 89.9493 34.8087C89.4407 35.7844 88.8033 36.7349 87.9795 37.507C87.3547 38.1016 86.5528 38.6629 85.6302 38.793C85.1619 38.8591 84.7351 38.7463 84.4364 38.3869C84.1092 38.0318 84.0385 37.5904 84.0877 37.1508C84.1807 36.3207 84.5645 35.606 85.1524 34.9905C85.7756 34.3335 86.5813 33.9257 87.4986 33.7016C88.0119 33.5504 88.7155 33.3068 89.0835 32.9348C89.4268 32.5872 89.5559 32.0054 89.6075 31.5464C89.6748 30.9441 89.6292 30.2691 89.2474 29.7411C88.9176 29.3225 88.4977 29.1396 87.9507 29.217C86.8066 29.3783 85.8747 30.756 85.375 31.5958C82.9746 35.7625 81.1848 40.1822 80.6501 44.9493C80.5994 45.403 80.6494 45.894 81.0139 46.2543C81.3472 46.6201 81.9344 46.6127 82.3889 46.5487C83.5452 46.3854 84.6049 45.7279 85.456 45.042C88.2014 42.7684 89.6111 40.383 91.0348 37.2986L95.0595 27.4244L95.1679 27.4262C95.6953 27.4354 96.2349 27.4199 96.7536 27.3466C97.577 27.2301 98.4151 27.0094 99.2057 26.7826L99.5241 26.6912L97.6508 31.2592L98.112 31.1942C98.7177 31.1088 99.3148 30.9567 99.8418 30.6806C100.368 30.3794 100.835 29.949 101.226 29.5111L103.154 27.3502C104.165 26.2284 105.45 25.3085 107.073 25.0796C107.71 24.9895 108.367 25.0476 108.928 25.3994C109.463 25.7748 109.574 26.3534 109.51 26.9249C109.439 27.5611 109.145 28.098 108.664 28.5483C108.155 29.0144 107.55 29.3418 106.826 29.4441C106.157 29.5384 105.465 29.4573 104.982 28.9602L104.509 28.5819L104.494 28.5508C104.441 28.4412 104.321 28.445 104.21 28.4606C103.771 28.5228 103.146 29.1454 102.873 29.4312C102.304 30.059 101.7 30.6617 101.053 31.2227C102.72 31.5928 104.167 32.4254 103.968 34.2017C103.827 35.4546 102.948 37.2093 102.373 38.3323C101.826 39.4296 101.263 40.5353 100.758 41.6468C100.602 42.0419 100.508 42.452 100.461 42.873C100.409 43.3364 100.402 43.9827 101.101 43.8842C102.216 43.7267 103.28 42.4572 103.871 41.6727C104.518 40.8086 105.094 39.8727 105.638 38.9489C106.424 37.6133 107.158 36.2465 107.87 34.8743C110.052 30.6666 112.007 24.1746 113.771 19.7813C110.977 20.9524 108.008 21.722 104.954 22.1968L103.76 22.3356C98.4284 22.7407 93.9645 21.7483 89.575 18.6784L89.5663 18.6721L88.3258 17.5404L89.3667 16.6915L89.4747 16.7899C93.1505 20.1407 97.767 21.4288 102.755 21.2608C106.842 20.9499 110.693 19.9188 114.359 18.3327ZM40.8336 29.6463C39.555 30.6749 38.0992 31.7412 36.6201 32.4454C35.147 33.1369 33.5756 33.6009 31.9252 33.8338C29.7956 34.1342 27.6352 33.9754 25.6552 33.0465C23.755 32.1973 22.3643 30.8888 21.4746 29.1311C20.4459 27.1751 20.2055 25.0836 20.4412 22.9809C20.8172 19.6268 22.2748 16.68 24.487 14.0928C22.5323 14.6198 20.617 15.2911 18.8151 16.1431C8.01601 21.2501 -2.21259 34.1197 2.6487 45.9306C3.54566 48.1098 4.67591 50.203 6.47196 51.902C8.22062 53.5739 10.3178 54.7337 12.7022 55.4338C15.2737 56.1884 17.9057 56.2919 20.5204 55.9231C22.8841 55.5895 25.0922 54.8803 27.1345 53.781C29.3401 52.6141 31.2706 50.9933 32.9379 49.2449C35.0706 47.0049 36.8616 44.3918 38.4177 41.7784C40.4506 38.443 42.1669 34.8884 43.7198 31.3322C44.7603 28.9841 45.8081 26.6273 46.9205 24.3087C47.6107 22.9049 48.3492 21.4717 49.2009 20.149C49.8671 19.0823 50.6422 18.0711 51.4699 17.1086C53.1562 15.146 55.1461 13.3457 57.1837 11.6856C55.5344 11.5493 53.8862 11.2951 52.2815 10.8782L46.8661 9.43633C43.7906 8.59106 39.8446 7.76069 36.6752 8.20788C34.9783 8.44728 33.372 8.97011 31.8686 9.6952C30.3861 10.4009 29.0524 11.3247 27.8679 12.3944C29.9995 12.2202 32.197 12.2877 34.2981 12.7916C36.176 13.2401 37.9611 14.0063 39.3847 15.264C40.8334 16.4831 41.802 18.0338 42.4309 19.7178C43.0667 21.5208 43.2775 23.4185 43.2317 25.2867C44.3934 23.5272 45.3118 21.4872 46.0779 19.5736L46.122 19.4639L47.3959 19.6749L47.3322 19.8399C46.2637 22.6015 44.8557 25.296 42.964 27.6439C42.5031 29.8264 41.7456 31.9404 40.6385 33.9006C39.5193 35.8299 38.1466 37.6165 36.5034 39.1908C34.8928 40.7331 33.0597 42.0365 31.009 43.0572C29.0379 44.0748 26.8961 44.7554 24.637 45.074C21.3833 45.5332 18.0924 45.1851 15.494 43.056C12.9231 41.0256 12.1884 38.3037 12.5201 35.3457C12.6729 33.9823 13.1428 32.5926 13.6609 31.3244L13.7018 31.2244L14.9817 31.3398L14.9073 31.5214C14.4348 32.6714 13.9484 34.011 13.8096 35.2488C13.6195 36.9474 13.8945 38.6257 14.8076 40.1643C15.6183 41.6273 16.8495 42.662 18.4912 43.3048C20.2674 44.0433 22.1608 44.1642 24.033 43.9C25.8498 43.6437 27.5853 43.0263 29.1863 42.2423C30.9952 41.3635 32.6304 40.2284 34.1025 38.934C35.6852 37.5598 37.0804 36.0249 38.2557 34.3366C39.284 32.8676 40.1822 31.2998 40.8336 29.6463ZM55.3345 36.3263C55.7882 35.0416 56.0128 33.5688 56.1634 32.2251C56.2618 31.3472 56.3099 30.2773 55.9735 29.4217C55.7562 28.8688 55.393 28.3567 54.7736 28.1335C53.3036 27.6036 51.3255 28.9289 50.3581 29.7786C49.7086 30.3495 49.0934 31.0372 48.6654 31.7688C48.0662 33.5211 47.4356 35.2739 46.7241 36.9869C46.4004 37.78 46.0597 38.5674 45.6952 39.3445C47.7003 37.8541 49.9937 36.7793 52.6026 36.4114C53.4634 36.2898 54.4499 36.3028 55.3345 36.3263ZM54.8356 37.6446C54.0086 37.5187 53.1719 37.517 52.352 37.6327C50.9399 37.832 49.6225 38.3234 48.4042 38.9722C47.1859 39.6321 45.9909 40.4288 45.0669 41.4187C44.0321 42.487 43.2285 43.7793 42.5939 45.0872C42.0041 46.2866 41.4648 47.6496 41.3157 48.979C41.2166 49.8629 41.3249 50.8264 41.9923 51.5458C42.5718 52.1952 43.314 52.4301 44.1893 52.3065C47.2002 51.8817 49.5355 48.4772 50.8351 46.2461C52.4148 43.4935 53.7896 40.6208 54.8356 37.6446ZM26.4009 13.6911C23.9281 16.2787 22.1889 19.2924 21.7954 22.8018C21.4812 25.6044 22.0409 28.3268 24.2487 30.4722C26.3527 32.5674 29.0862 33.0729 32.0062 32.661C33.6494 32.4291 35.2044 31.9553 36.6134 31.1689C38.3625 30.2002 40.095 28.6743 41.5214 27.339C41.6147 26.8576 41.6694 26.3501 41.7241 25.8635C41.9087 24.2178 41.8181 22.5262 41.3183 20.9077C40.8585 19.451 40.0947 18.1332 38.9908 16.9853C37.899 15.8292 36.5971 14.9461 35.0612 14.3721C33.8213 13.8895 32.5265 13.5682 31.2031 13.436C29.614 13.3323 27.9609 13.4732 26.4009 13.6911ZM119.447 16.3088C121.717 15.0018 129.058 7.1124 128.015 2.81323C127.94 2.2629 127.652 1.79604 127.081 1.56129C126.796 1.44513 126.429 1.5816 126.185 1.7039L126.178 1.70749L126.17 1.71035C125.752 1.86957 125.439 2.16811 125.195 2.51046C124.756 3.12691 124.418 3.90934 124.139 4.60164L123.256 6.79905L123.27 6.79524L119.447 16.3088Z" fill="#713640"/>
<path fill-rule="evenodd" clip-rule="evenodd" d="M114.359 18.3327L114.927 17.0805L118.101 9.11684C118.46 8.28426 118.81 7.44618 119.157 6.60576L120.487 3.78461C120.592 3.60889 120.704 3.43254 120.823 3.26465C121.636 2.12241 122.686 1.04883 124.047 0.448992C125.132 -0.0298217 126.298 -0.188506 127.454 0.285971C128.435 0.688614 129.029 1.41202 129.209 2.37536C130.757 7.65914 122.16 15.7982 119.46 17.6354L118.723 18.1064C116.121 24.5597 113.102 32.8935 110.497 39.3459C110.24 39.9843 109.929 40.7896 109.852 41.4744C109.819 41.7743 109.845 42.1179 110.102 42.3451L110.112 42.3542L110.121 42.3648C110.295 42.5821 110.516 42.6896 110.802 42.6491C112.442 42.4177 114.201 40.1791 115.045 39.0239C116.092 37.63 117.014 36.038 117.866 34.5282C117.38 34.1338 116.915 33.6628 116.628 33.1269C116.35 32.5384 116.361 31.767 116.43 31.1522C116.521 30.3464 116.781 29.5522 117.095 28.8065C117.427 27.9769 117.849 27.1757 118.305 26.3987C118.775 25.665 119.629 24.4901 120.636 24.3479C121.957 24.1616 122.009 25.4234 121.912 26.2839C121.646 28.6616 120.476 31.4432 119.459 33.6414C119.68 33.6599 119.903 33.6572 120.12 33.6332C121.183 33.5144 122.006 32.772 122.506 31.9551L126.089 22.9987L126.188 22.9927C126.841 22.9535 127.522 22.9133 128.167 22.8223C128.911 22.7172 129.643 22.5595 130.363 22.3672L130.674 22.2841L124.671 37.1002L123.985 38.9231C123.852 39.1924 123.779 39.474 123.746 39.7701C123.715 40.0478 123.691 40.416 124.105 40.3576C124.798 40.2595 125.878 38.9916 126.273 38.5203C127.406 37.0915 128.382 35.5164 129.256 33.9376C130.286 32.0774 131.198 30.155 132.03 28.2095L133.847 23.7359C133.936 23.5307 134.031 23.3248 134.123 23.1197C134.309 22.7312 134.466 22.3205 134.611 21.9166L134.639 21.8359L135.225 21.7533L135.258 21.7807C135.285 21.7809 135.325 21.7757 135.347 21.7726L137.251 21.6133C137.305 21.6059 137.358 21.5926 137.404 21.5666L137.43 21.5515L137.459 21.5474C137.584 21.5216 137.747 21.4614 137.873 21.4211C137.95 21.3862 138.053 21.3735 138.11 21.3607C138.332 21.3115 138.553 21.2639 138.775 21.2163L139.07 21.1529L132.775 36.7888C132.559 37.3001 132.293 37.9599 132.231 38.512C132.171 39.0461 132.273 39.412 132.935 39.3188C134.028 39.1645 135.094 37.8595 135.664 37.0906C137.124 35.0721 138.363 32.703 139.476 30.5013C141.081 27.3451 142.339 24.0395 143.659 20.7694L143.697 20.6778L143.804 20.6788C144.406 20.6848 145.008 20.6527 145.6 20.5692C146.33 20.4662 147.095 20.2666 147.801 20.0774L148.102 19.997L147.306 22.1412C148.466 20.8915 150.078 19.4747 151.764 19.2367C153.973 18.9249 154.777 20.2184 154.9 21.951C155.641 21.0125 156.533 19.9736 157.473 19.2663C158.275 18.6823 159.175 18.2639 160.205 18.1185C161.059 17.9981 161.867 18.1606 162.452 18.8054C163.033 19.4892 163.132 20.3701 163.04 21.1871C162.933 22.1445 162.571 23.1886 162.228 24.087C161.668 25.5529 160.99 26.9956 160.291 28.4051C159.586 29.8253 158.886 31.2666 158.275 32.7261C158.012 33.3538 157.594 34.3306 157.518 35.0049C157.456 35.5582 157.531 36.0192 158.251 35.9174C159.453 35.7477 160.622 34.2019 161.211 33.34C161.776 32.5638 162.279 31.7152 162.752 30.887C163.468 29.635 164.139 28.3563 164.793 27.0741C164.908 26.8553 165.423 25.8158 165.825 25.9755C166.506 26.2457 164.991 29.1614 164.825 29.4768C164.146 30.726 163.446 31.9794 162.682 33.1848C162.027 34.2162 161.226 35.2613 160.251 36.0549C159.509 36.6648 158.636 37.0974 157.633 37.2389C156.634 37.38 155.655 37.2231 154.909 36.5239C154.14 35.8028 153.953 34.8633 154.06 33.9092C154.167 32.9586 154.548 31.9224 154.908 31.0379C155.694 29.13 156.619 27.2479 157.556 25.4048C158.027 24.4368 158.489 23.4505 158.877 22.4498C159.092 21.8956 159.348 21.206 159.414 20.6144C159.461 20.1973 159.429 19.7674 158.856 19.8485C157.366 20.0586 155.609 22.7526 154.936 23.8219C154.255 24.9051 153.679 26.132 153.146 27.2863C152.263 29.2027 151.449 31.1539 150.657 33.1047C150.326 33.9815 149.994 34.858 149.652 35.7313C149.494 36.1351 149.332 36.583 149.14 36.9671L148.654 38.1502L148.553 38.1541C148.174 38.1689 147.783 38.1898 147.41 38.2428L146.716 38.3405L145.138 38.5996C145.082 38.622 145.017 38.6334 144.972 38.6447C144.807 38.6863 144.641 38.7264 144.475 38.7662L144.16 38.842L144.283 38.5658C144.386 38.3348 144.796 37.4754 144.821 37.2479L144.824 37.2294L147.374 31.0285L149.517 25.8405C149.911 24.8585 150.303 23.8713 150.661 22.8763C150.792 22.5115 151.037 21.8913 151.08 21.5103C151.123 21.1239 151.047 20.8891 150.581 20.955C150.134 21.018 149.666 21.3594 149.347 21.6302C148.691 22.1646 148.114 22.871 147.62 23.5339C145.914 25.8525 144.615 28.6628 143.557 31.2934L141.831 35.5695L140.813 38.1758L140.341 39.3282L140.234 39.3268C139.913 39.323 139.53 39.3179 139.215 39.3623C138.195 39.5062 137.187 39.6987 136.192 39.9352L135.89 40.0069L137.153 36.878C135.974 38.6127 134.23 40.5414 131.977 40.8591C130.98 40.9999 130.145 40.735 129.544 39.9481C128.857 39.0667 128.804 37.8749 128.918 36.8599L128.93 36.7476C128.516 37.3366 128.097 37.9233 127.667 38.5016C127.332 38.9516 126.982 39.4197 126.604 39.8387C125.605 40.9645 124.343 41.8266 122.732 42.0539C121.925 42.1678 121.101 42.0765 120.509 41.4834C119.907 40.8822 119.818 40.0617 119.903 39.3014C120.02 38.2589 120.496 36.9995 120.878 36.0235L121.578 34.2728C121.14 34.533 120.655 34.7071 120.12 34.7825C119.754 34.8339 119.298 34.8121 118.913 34.7873C117.678 37.0242 116.196 39.5204 114.447 41.4336C113.393 42.5821 112.001 43.6779 110.314 43.9157C109.181 44.0757 108.083 43.8933 107.284 43.0535C106.494 42.2225 106.37 41.0574 106.453 40.0146C105.861 40.9953 105.201 41.9915 104.454 42.8412C103.357 44.1078 101.949 45.0961 100.151 45.3496C99.2157 45.482 98.2507 45.3861 97.5075 44.7687C96.7559 44.1923 96.5473 43.3982 96.643 42.5469C96.738 41.6993 97.2484 40.4872 97.5722 39.6949C98.3073 37.8953 99.1406 36.1163 99.9793 34.3589C100.139 34.0204 100.303 33.6116 100.344 33.239C100.474 32.0798 99.0973 32.1799 98.2443 32.3002C97.9024 32.3483 97.5199 32.4558 97.183 32.5488L91.5803 46.2809L91.4736 46.2805C90.8435 46.2776 90.2135 46.3135 89.594 46.4008C88.9142 46.4965 88.1297 46.7315 87.4753 46.9177L87.1598 47.0075L88.6214 43.3846C88.1745 43.9335 87.6954 44.4603 87.1936 44.9671C85.8363 46.2914 84.0527 47.6214 82.0132 47.9091C81.161 48.0294 80.2767 47.9858 79.4829 47.6054C77.8688 46.8319 76.9238 44.9065 76.7004 43.2738C76.6819 43.3035 76.6649 43.3307 76.6503 43.3534C76.4519 43.6588 76.2534 43.9638 76.0506 44.2665C75.4672 45.1367 74.8518 45.9949 74.1786 46.8072C73.3799 47.771 71.8931 49.4152 70.5052 49.611C69.5081 49.7517 68.6734 49.4868 68.0727 48.6999C67.3858 47.8187 67.3323 46.6267 67.4462 45.6116L67.4588 45.4993C67.0446 46.0885 66.6254 46.6751 66.1952 47.2535C65.8603 47.7037 65.5106 48.1716 65.1324 48.5907C64.1002 49.7532 62.4817 50.5556 60.8518 50.7855C60.0443 50.8997 59.2211 50.8078 58.6287 50.2149C57.6091 49.195 58.9628 45.9084 59.4062 44.7753L60.7724 41.3612C60.4257 40.7613 59.9265 40.3784 59.4084 39.9368C58.0753 43.3499 56.1523 46.5074 53.4337 49.125C51.1387 51.3331 48.3298 53.1274 44.9436 53.6054C43.5883 53.7966 42.1232 53.6973 41.0896 52.7219C40.0155 51.7449 39.8911 50.2765 40.0341 49.0019C40.0876 48.5256 40.1857 48.0538 40.317 47.5918C37.7871 50.0496 34.7475 52.1168 31.5356 53.7666C28.4385 55.3639 25.0831 56.5385 21.5278 57.04C15.0224 57.9579 8.95493 56.7549 4.54131 51.8304C3.67357 50.8497 2.91015 49.7973 2.27475 48.6803C2.16692 48.4907 2.0628 48.2993 1.96241 48.1065L1.92619 48.116L1.87211 47.9863C1.27442 46.5534 0.793169 45.0936 0.386175 43.6121L0.383094 43.6008L0.382137 43.5867C0.328912 43.3159 0.283442 43.0472 0.241266 42.775C-1.98302 28.4505 11.5349 15.5517 25.8417 12.6238C29.9189 8.7472 35.0546 6.56799 40.9151 5.74102C42.4332 5.527 44.0492 5.3698 45.5987 5.43708C47.5329 5.53822 49.5319 5.84882 51.44 6.18968C55.0073 6.78201 58.7685 7.3901 62.371 7.64062C64.4518 7.78386 66.7185 7.85157 68.7696 7.56212C69.9876 7.39032 71.2144 7.10658 72.3306 6.63835C73.3896 6.22365 74.3553 5.61587 75.2119 4.92092C76.2702 4.06591 77.2305 3.01191 78.099 1.99461L78.1866 1.8921L79.1187 2.45851L79.0222 2.58091C77.1375 4.97361 74.8743 7.03919 72.1679 8.64649C69.5798 10.1817 66.7433 11.2153 63.6629 11.6501C62.0815 11.8732 60.4745 11.9152 58.8668 11.8007C56.8338 13.4391 55.2466 15.478 54.0189 17.6936C53.221 19.1053 52.5614 20.6203 51.9673 22.1186C51.1542 24.1694 50.4464 26.2666 49.7889 28.3687C49.7416 28.5171 49.6939 28.6652 49.6462 28.8135C51.5278 27.0401 54.0006 25.5288 56.6804 27.2765C57.399 27.7495 58.352 28.3961 58.9132 29.0245C59.6178 29.753 60.06 30.7091 60.3479 31.6287C61.0593 34.0361 60.3657 36.1359 59.9331 38.4189C60.4302 38.7863 61.0564 39.1614 61.467 39.6251L64.6179 31.7501L64.7168 31.7441C65.3691 31.7052 66.0514 31.6651 66.6956 31.5742C67.44 31.4691 68.1717 31.3115 68.8915 31.1192L69.2025 31.0363L64.2732 43.2032C63.9422 44.0203 63.5746 44.825 63.2348 45.6393C62.8588 46.5398 62.4401 47.5709 62.2738 48.5299C62.2246 48.8142 62.2149 49.1685 62.6334 49.1093C63.3265 49.0116 64.4064 47.7431 64.8012 47.2722C65.9346 45.843 66.9106 44.2683 67.7841 42.6894C68.4508 41.4859 69.062 40.2556 69.6371 39.0107C70.9045 36.267 71.9967 33.4542 73.1413 30.6628L73.1769 30.576L73.279 30.573C74.629 30.5332 76.0089 30.2963 77.2977 29.9696L77.6041 29.8919L73.1132 41.0456C72.6564 42.1806 72.1576 43.283 71.7286 44.4341C71.5848 44.8202 70.5159 47.7249 70.985 47.9999C71.0799 48.0558 71.3072 47.9407 71.3825 47.8994C72.4868 47.2931 75.4095 42.7445 75.9697 41.5138C76.3226 40.7386 76.6851 39.9683 77.0701 39.2066C77.6247 38.1171 78.1816 37.0298 78.7656 35.953C80.4564 32.9273 83.7095 28.5569 87.6664 27.9979C88.6516 27.859 89.5866 28.0323 90.2701 28.7778C90.9927 29.5835 91.0642 30.6899 90.9554 31.6607C90.8308 32.7729 90.4906 33.8232 89.9493 34.8087C89.4407 35.7844 88.8033 36.7349 87.9795 37.507C87.3547 38.1016 86.5528 38.6629 85.6302 38.793C85.1619 38.8591 84.7351 38.7463 84.4364 38.3869C84.1092 38.0318 84.0385 37.5904 84.0877 37.1508C84.1807 36.3207 84.5645 35.606 85.1524 34.9905C85.7756 34.3335 86.5813 33.9257 87.4986 33.7016C88.0119 33.5504 88.7155 33.3068 89.0835 32.9348C89.4268 32.5872 89.5559 32.0054 89.6075 31.5464C89.6748 30.9441 89.6292 30.2691 89.2474 29.7411C88.9176 29.3225 88.4977 29.1396 87.9507 29.217C86.8066 29.3783 85.8747 30.756 85.375 31.5958C82.9746 35.7625 81.1848 40.1822 80.6501 44.9493C80.5994 45.403 80.6494 45.894 81.0139 46.2543C81.3472 46.6201 81.9344 46.6127 82.3889 46.5487C83.5452 46.3854 84.6049 45.7279 85.456 45.042C88.2014 42.7684 89.6111 40.383 91.0348 37.2986L95.0595 27.4244L95.1679 27.4262C95.6953 27.4354 96.2349 27.4199 96.7536 27.3466C97.577 27.2301 98.4151 27.0094 99.2057 26.7826L99.5241 26.6912L97.6508 31.2592L98.112 31.1942C98.7177 31.1088 99.3148 30.9567 99.8418 30.6806C100.368 30.3794 100.835 29.949 101.226 29.5111L103.154 27.3502C104.165 26.2284 105.45 25.3085 107.073 25.0796C107.71 24.9895 108.367 25.0476 108.928 25.3994C109.463 25.7748 109.574 26.3534 109.51 26.9249C109.439 27.5611 109.145 28.098 108.664 28.5483C108.155 29.0144 107.55 29.3418 106.826 29.4441C106.157 29.5384 105.465 29.4573 104.982 28.9602L104.509 28.5819L104.494 28.5508C104.441 28.4412 104.321 28.445 104.21 28.4606C103.771 28.5228 103.146 29.1454 102.873 29.4312C102.304 30.059 101.7 30.6617 101.053 31.2227C102.72 31.5928 104.167 32.4254 103.968 34.2017C103.827 35.4546 102.948 37.2093 102.373 38.3323C101.826 39.4296 101.263 40.5353 100.758 41.6468C100.602 42.0419 100.508 42.452 100.461 42.873C100.409 43.3364 100.402 43.9827 101.101 43.8842C102.216 43.7267 103.28 42.4572 103.871 41.6727C104.518 40.8086 105.094 39.8727 105.638 38.9489C106.424 37.6133 107.158 36.2465 107.87 34.8743C110.052 30.6666 112.007 24.1746 113.771 19.7813C110.977 20.9524 108.008 21.722 104.954 22.1968L103.76 22.3356C98.4284 22.7407 93.9645 21.7483 89.575 18.6784L89.5663 18.6721L88.3258 17.5404L89.3667 16.6915L89.4747 16.7899C93.1505 20.1407 97.767 21.4288 102.755 21.2608C106.842 20.9499 110.693 19.9188 114.359 18.3327ZM40.8336 29.6463C39.555 30.6749 38.0992 31.7412 36.6201 32.4454C35.147 33.1369 33.5756 33.6009 31.9252 33.8338C29.7956 34.1342 27.6352 33.9754 25.6552 33.0465C23.755 32.1973 22.3643 30.8888 21.4746 29.1311C20.4459 27.1751 20.2055 25.0836 20.4412 22.9809C20.8172 19.6268 22.2748 16.68 24.487 14.0928C22.5323 14.6198 20.617 15.2911 18.8151 16.1431C8.01601 21.2501 -2.21259 34.1197 2.6487 45.9306C3.54566 48.1098 4.67591 50.203 6.47196 51.902C8.22062 53.5739 10.3178 54.7337 12.7022 55.4338C15.2737 56.1884 17.9057 56.2919 20.5204 55.9231C22.8841 55.5895 25.0922 54.8803 27.1345 53.781C29.3401 52.6141 31.2706 50.9933 32.9379 49.2449C35.0706 47.0049 36.8616 44.3918 38.4177 41.7784C40.4506 38.443 42.1669 34.8884 43.7198 31.3322C44.7603 28.9841 45.8081 26.6273 46.9205 24.3087C47.6107 22.9049 48.3492 21.4717 49.2009 20.149C49.8671 19.0823 50.6422 18.0711 51.4699 17.1086C53.1562 15.146 55.1461 13.3457 57.1837 11.6856C55.5344 11.5493 53.8862 11.2951 52.2815 10.8782L46.8661 9.43633C43.7906 8.59106 39.8446 7.76069 36.6752 8.20788C34.9783 8.44728 33.372 8.97011 31.8686 9.6952C30.3861 10.4009 29.0524 11.3247 27.8679 12.3944C29.9995 12.2202 32.197 12.2877 34.2981 12.7916C36.176 13.2401 37.9611 14.0063 39.3847 15.264C40.8334 16.4831 41.802 18.0338 42.4309 19.7178C43.0667 21.5208 43.2775 23.4185 43.2317 25.2867C44.3934 23.5272 45.3118 21.4872 46.0779 19.5736L46.122 19.4639L47.3959 19.6749L47.3322 19.8399C46.2637 22.6015 44.8557 25.296 42.964 27.6439C42.5031 29.8264 41.7456 31.9404 40.6385 33.9006C39.5193 35.8299 38.1466 37.6165 36.5034 39.1908C34.8928 40.7331 33.0597 42.0365 31.009 43.0572C29.0379 44.0748 26.8961 44.7554 24.637 45.074C21.3833 45.5332 18.0924 45.1851 15.494 43.056C12.9231 41.0256 12.1884 38.3037 12.5201 35.3457C12.6729 33.9823 13.1428 32.5926 13.6609 31.3244L13.7018 31.2244L14.9817 31.3398L14.9073 31.5214C14.4348 32.6714 13.9484 34.011 13.8096 35.2488C13.6195 36.9474 13.8945 38.6257 14.8076 40.1643C15.6183 41.6273 16.8495 42.662 18.4912 43.3048C20.2674 44.0433 22.1608 44.1642 24.033 43.9C25.8498 43.6437 27.5853 43.0263 29.1863 42.2423C30.9952 41.3635 32.6304 40.2284 34.1025 38.934C35.6852 37.5598 37.0804 36.0249 38.2557 34.3366C39.284 32.8676 40.1822 31.2998 40.8336 29.6463ZM55.3345 36.3263C55.7882 35.0416 56.0128 33.5688 56.1634 32.2251C56.2618 31.3472 56.3099 30.2773 55.9735 29.4217C55.7562 28.8688 55.393 28.3567 54.7736 28.1335C53.3036 27.6036 51.3255 28.9289 50.3581 29.7786C49.7086 30.3495 49.0934 31.0372 48.6654 31.7688C48.0662 33.5211 47.4356 35.2739 46.7241 36.9869C46.4004 37.78 46.0597 38.5674 45.6952 39.3445C47.7003 37.8541 49.9937 36.7793 52.6026 36.4114C53.4634 36.2898 54.4499 36.3028 55.3345 36.3263ZM54.8356 37.6446C54.0086 37.5187 53.1719 37.517 52.352 37.6327C50.9399 37.832 49.6225 38.3234 48.4042 38.9722C47.1859 39.6321 45.9909 40.4288 45.0669 41.4187C44.0321 42.487 43.2285 43.7793 42.5939 45.0872C42.0041 46.2866 41.4648 47.6496 41.3157 48.979C41.2166 49.8629 41.3249 50.8264 41.9923 51.5458C42.5718 52.1952 43.314 52.4301 44.1893 52.3065C47.2002 51.8817 49.5355 48.4772 50.8351 46.2461C52.4148 43.4935 53.7896 40.6208 54.8356 37.6446ZM26.4009 13.6911C23.9281 16.2787 22.1889 19.2924 21.7954 22.8018C21.4812 25.6044 22.0409 28.3268 24.2487 30.4722C26.3527 32.5674 29.0862 33.0729 32.0062 32.661C33.6494 32.4291 35.2044 31.9553 36.6134 31.1689C38.3625 30.2002 40.095 28.6743 41.5214 27.339C41.6147 26.8576 41.6694 26.3501 41.7241 25.8635C41.9087 24.2178 41.8181 22.5262 41.3183 20.9077C40.8585 19.451 40.0947 18.1332 38.9908 16.9853C37.899 15.8292 36.5971 14.9461 35.0612 14.3721C33.8213 13.8895 32.5265 13.5682 31.2031 13.436C29.614 13.3323 27.9609 13.4732 26.4009 13.6911ZM119.447 16.3088C121.717 15.0018 129.058 7.1124 128.015 2.81323C127.94 2.2629 127.652 1.79604 127.081 1.56129C126.796 1.44513 126.429 1.5816 126.185 1.7039L126.178 1.70749L126.17 1.71035C125.752 1.86957 125.439 2.16811 125.195 2.51046C124.756 3.12691 124.418 3.90934 124.139 4.60164L123.256 6.79905L123.27 6.79524L119.447 16.3088Z" fill="#7D4550"/>
</svg>
